<?xml version="1.0" standalone="no"?>
<!DOCTYPE svg PUBLIC "-//W3C//DTD SVG 20010904//EN"
 "http://www.w3.org/TR/2001/REC-SVG-20010904/DTD/svg10.dtd">
<svg version="1.0" xmlns="http://www.w3.org/2000/svg"
 width="149.000000pt" height="109.000000pt" viewBox="0 0 149.000000 109.000000"
 preserveAspectRatio="xMidYMid meet">

<g transform="translate(0.000000,109.000000) scale(0.100000,-0.100000)"
fill="#000000" stroke="none">
<path d="M0 545 l0 -545 745 0 745 0 0 545 0 545 -745 0 -745 0 0 -545z m183
508 c-14 -3 -23 -13 -26 -31 -4 -24 -4 -24 -6 6 -1 29 2 32 27 31 22 -1 23 -2
5 -6z m487 -5 c0 -10 -39 -12 -170 -10 l-170 3 0 -80 0 -81 30 0 c30 0 30 1
30 55 l0 55 169 0 170 0 3 33 3 32 115 0 115 0 3 -61 c4 -83 -1 -86 -131 -78
-105 7 -106 7 -109 33 l-3 26 -162 3 -163 2 0 -25 c0 -14 6 -25 13 -26 10 0
10 -2 0 -6 -7 -2 -13 -13 -13 -24 0 -14 7 -19 25 -19 20 0 25 5 25 25 0 25 1
25 88 25 48 0 97 3 110 6 13 4 22 2 22 -5 0 -7 -26 -11 -75 -11 -68 0 -75 -2
-75 -20 0 -19 7 -20 265 -20 l265 0 0 84 c0 80 -1 85 -22 89 -13 2 4 4 37 4
33 0 48 -2 33 -4 -25 -4 -28 -8 -28 -44 l0 -39 55 0 c30 0 55 -4 55 -10 0 -5
-25 -10 -55 -10 l-55 0 0 -35 0 -35 64 0 c36 0 68 -4 71 -10 3 -5 28 -10 56
-10 l49 0 1 73 c1 39 3 64 6 55 4 -14 15 -18 59 -18 30 0 54 -4 54 -10 0 -5
-25 -10 -56 -10 l-55 0 3 -42 3 -43 55 -6 c43 -4 31 -6 -52 -7 l-108 -2 0 -85
0 -85 108 -2 c94 -2 98 -2 30 -5 l-78 -4 0 -34 c0 -29 4 -34 28 -37 l27 -3 3
-102 3 -102 47 -4 c26 -2 -1 -4 -60 -5 l-108 -2 0 -28 c0 -15 -5 -33 -12 -40
-7 -7 -25 -12 -40 -12 -15 0 -28 -4 -28 -10 0 -5 15 -10 34 -10 25 0 35 5 39
20 6 22 36 27 55 8 7 -7 28 -11 47 -9 34 2 35 2 35 -33 0 -20 5 -36 11 -36 8
0 10 -23 7 -70 l-4 -70 53 0 53 0 0 -35 0 -35 -725 0 -725 0 0 34 c0 35 0 35
52 38 30 2 53 8 56 16 2 6 -3 12 -12 12 -13 0 -16 12 -16 60 0 47 3 60 15 60
8 0 15 8 15 19 0 20 25 31 73 31 20 0 31 -7 39 -25 6 -14 17 -25 25 -25 9 0
13 -13 13 -40 l0 -40 95 0 95 0 0 38 c0 20 4 52 9 70 l10 32 -104 0 c-57 0
-110 3 -119 6 -13 5 -16 24 -16 100 l0 94 -37 2 -38 1 38 4 37 4 0 75 0 74
-50 0 -50 0 2 88 c1 48 3 68 5 45 l4 -43 45 0 44 0 0 53 c0 58 12 77 47 77 20
0 23 5 23 35 l0 35 -52 2 -53 1 50 6 50 6 3 42 3 43 167 3 c92 1 170 4 175 5
4 1 7 -4 7 -10z m-513 -175 c-3 -10 -5 -2 -5 17 0 19 2 27 5 18 2 -10 2 -26 0
-35z m1123 -133 c5 0 11 17 13 38 4 32 4 31 3 -8 -1 -33 -5 -45 -16 -45 -11 0
-15 12 -16 45 -1 39 -1 40 3 8 2 -21 8 -38 13 -38z m57 8 c-3 -7 -5 -2 -5 12
0 14 2 19 5 13 2 -7 2 -19 0 -25z m-1136 -148 c5 0 9 -16 9 -35 0 -19 -5 -35
-10 -35 -6 0 -8 11 -4 25 5 21 3 25 -14 25 -13 0 -22 -8 -25 -22 -4 -20 -4
-19 -6 5 0 15 3 27 8 27 5 0 12 10 16 23 6 19 8 19 12 5 2 -10 9 -18 14 -18z
m-34 -272 c-3 -8 -6 -5 -6 6 -1 11 2 17 5 13 3 -3 4 -12 1 -19z m63 -2 c0 -3
-4 -8 -10 -11 -5 -3 -10 -1 -10 4 0 6 5 11 10 11 6 0 10 -2 10 -4z"/>
<path d="M747 1043 c-4 -3 -7 -30 -7 -60 l0 -53 105 0 105 0 0 54 0 53 -67 6
c-87 9 -128 9 -136 0z m41 -44 c12 -19 15 -20 31 -5 21 19 43 20 59 4 9 -9 16
-7 32 7 26 24 39 11 15 -15 -22 -24 -33 -25 -55 -5 -17 15 -50 11 -50 -6 0
-16 -25 -9 -43 11 -19 22 -21 30 -9 30 4 0 13 -9 20 -21z"/>
<path d="M460 900 c0 -15 7 -20 25 -20 18 0 25 5 25 20 0 15 -7 20 -25 20 -18
0 -25 -5 -25 -20z"/>
<path d="M277 853 c-4 -3 -7 -125 -7 -270 l0 -263 117 0 c89 0 120 3 133 15 9
8 34 21 56 29 38 14 35 15 -83 15 -75 1 -123 5 -123 11 0 6 57 10 150 10 146
0 150 1 150 21 0 23 -29 66 -72 107 -33 31 -36 57 -8 74 14 9 20 24 20 52 0
21 9 55 19 75 11 20 22 45 25 55 6 17 13 18 69 11 34 -4 89 -11 122 -14 53 -5
60 -8 57 -26 -16 -117 -15 -136 7 -151 26 -18 27 -47 4 -68 -64 -58 -83 -83
-83 -108 l0 -28 134 0 c79 0 137 -4 141 -10 4 -6 -36 -10 -112 -10 l-118 -1
45 -24 c40 -21 58 -24 158 -25 l112 0 0 258 0 259 -247 6 c-320 9 -658 9 -666
0z m821 -60 c3 -17 10 -23 28 -23 23 0 24 -3 24 -60 l0 -60 -110 0 -110 0 0
78 c0 43 3 82 7 86 4 4 41 5 83 4 69 -3 75 -5 78 -25z m-548 -88 l0 -105 -72
2 -73 2 68 3 67 4 0 94 0 95 -105 0 -104 0 -4 -102 -3 -103 -2 108 -2 107 115
0 115 0 0 -105z m-122 28 c-1 -37 -1 -37 -5 -6 -4 27 -9 32 -36 36 -31 4 -31
4 6 5 37 2 37 2 35 -35z m92 -2 c0 -19 -6 -30 -17 -33 -30 -8 -43 2 -43 33 0
26 4 29 30 29 26 0 30 -3 30 -29z m-102 -68 c-10 -2 -28 -2 -40 0 -13 2 -5 4
17 4 22 1 32 -1 23 -4z m95 0 c-7 -2 -21 -2 -30 0 -10 3 -4 5 12 5 17 0 24 -2
18 -5z m-95 -20 c-10 -2 -28 -2 -40 0 -13 2 -5 4 17 4 22 1 32 -1 23 -4z m95
0 c-7 -2 -21 -2 -30 0 -10 3 -4 5 12 5 17 0 24 -2 18 -5z m487 -33 c0 -12 -8
-12 -35 0 -18 8 -17 9 8 9 15 1 27 -3 27 -9z m140 0 c0 -12 -8 -12 -35 0 -18
8 -17 9 8 9 15 1 27 -3 27 -9z m10 -60 c0 -16 -4 -30 -10 -30 -5 0 -10 9 -10
20 0 11 -7 20 -16 20 -8 0 -12 -4 -9 -10 4 -6 -17 -10 -54 -10 -39 0 -61 -4
-61 -11 0 -8 17 -10 55 -5 36 4 55 3 55 -4 0 -7 -22 -10 -57 -8 -45 2 -59 7
-61 20 -3 13 6 18 40 21 38 3 36 4 -14 5 l-58 2 0 -35 0 -35 65 0 c58 0 65 -2
65 -20 0 -15 7 -20 25 -20 16 0 25 6 25 15 0 8 5 15 10 15 6 0 10 -12 10 -26
0 -23 -3 -25 -42 -22 -36 2 -44 7 -46 26 -3 20 -9 22 -63 22 l-59 0 0 50 0 50
105 0 105 0 0 -30z m-786 5 c-4 -8 -15 -15 -25 -15 -10 0 -19 7 -19 15 0 9 9
15 25 15 18 0 23 -4 19 -15z m116 0 c0 -11 -11 -15 -40 -15 -29 0 -40 4 -40
15 0 11 11 15 40 15 29 0 40 -4 40 -15z m70 0 c0 -8 -9 -15 -20 -15 -11 0 -20
7 -20 15 0 8 9 15 20 15 11 0 20 -7 20 -15z m-190 -40 c0 -8 -9 -15 -20 -15
-11 0 -20 7 -20 15 0 8 9 15 20 15 11 0 20 -7 20 -15z m120 0 c0 -11 -11 -15
-40 -15 -29 0 -40 4 -40 15 0 11 11 15 40 15 29 0 40 -4 40 -15z m70 0 c0 -8
-9 -15 -20 -15 -11 0 -20 7 -20 15 0 8 9 15 20 15 11 0 20 -7 20 -15z m-190
-40 c0 -8 -9 -15 -20 -15 -11 0 -20 7 -20 15 0 8 9 15 20 15 11 0 20 -7 20
-15z m120 0 c0 -11 -11 -15 -40 -15 -29 0 -40 4 -40 15 0 11 11 15 40 15 29 0
40 -4 40 -15z m70 0 c0 -8 -9 -15 -20 -15 -11 0 -20 7 -20 15 0 8 9 15 20 15
11 0 20 -7 20 -15z m-190 -40 c0 -8 -9 -15 -20 -15 -11 0 -20 7 -20 15 0 8 9
15 20 15 11 0 20 -7 20 -15z m120 0 c0 -11 -11 -15 -40 -15 -29 0 -40 4 -40
15 0 11 11 15 40 15 29 0 40 -4 40 -15z m70 0 c0 -8 -9 -15 -20 -15 -11 0 -20
7 -20 15 0 8 9 15 20 15 11 0 20 -7 20 -15z m-200 -59 c0 -8 -5 -18 -11 -22
-14 -8 -33 11 -25 25 10 16 36 13 36 -3z"/>
<path d="M950 730 l0 -70 96 0 95 0 -3 48 c-3 39 -6 47 -24 50 -12 2 -24 12
-27 23 -4 16 -14 19 -71 19 l-66 0 0 -70z m115 40 c0 -12 -11 -14 -50 -12 -56
4 -60 6 -50 22 11 17 100 8 100 -10z m60 -50 c8 -27 -4 -49 -26 -45 -31 6 -38
14 -34 37 8 39 48 45 60 8z m-75 0 c0 -5 -20 -10 -45 -10 -25 0 -45 5 -45 10
0 6 20 10 45 10 25 0 45 -4 45 -10z"/>
<path d="M983 773 c9 -2 23 -2 30 0 6 3 -1 5 -18 5 -16 0 -22 -2 -12 -5z"/>
<path d="M1085 711 c-6 -11 9 -23 19 -14 9 9 7 23 -3 23 -6 0 -12 -4 -16 -9z"/>
<path d="M480 730 c0 -11 5 -20 10 -20 6 0 10 9 10 20 0 11 -4 20 -10 20 -5 0
-10 -9 -10 -20z"/>
<path d="M679 773 c-1 -5 -1 -12 0 -17 1 -5 -8 -20 -21 -33 -20 -22 -23 -35
-23 -113 0 -74 3 -91 20 -110 53 -58 121 -62 174 -10 27 28 29 35 33 127 2 54
8 106 12 116 7 14 3 17 -25 17 -19 0 -61 7 -94 15 -71 17 -75 17 -76 8z"/>
<path d="M160 705 c0 -35 0 -35 45 -35 45 0 45 0 45 35 0 35 0 35 -45 35 -45
0 -45 0 -45 -35z"/>
<path d="M1220 635 c0 -28 4 -35 20 -35 16 0 20 7 20 35 0 28 -4 35 -20 35
-16 0 -20 -7 -20 -35z"/>
<path d="M595 571 c-3 -5 -1 -12 5 -16 5 -3 10 1 10 9 0 18 -6 21 -15 7z"/>
<path d="M891 564 c0 -11 3 -14 6 -6 3 7 2 16 -1 19 -3 4 -6 -2 -5 -13z"/>
<path d="M1220 484 l0 -95 53 3 52 3 3 93 3 92 -26 0 c-20 0 -25 -5 -25 -25 0
-14 -4 -25 -10 -25 -5 0 -10 11 -10 25 0 18 -5 25 -20 25 -19 0 -20 -7 -20
-96z"/>
<path d="M692 418 c3 -8 26 -14 56 -16 42 -2 52 0 52 12 0 13 -12 16 -56 16
-40 0 -55 -4 -52 -12z"/>
<path d="M703 373 c26 -2 67 -2 90 0 23 2 2 3 -48 3 -49 0 -68 -1 -42 -3z"/>
<path d="M529 311 c-28 -28 -29 -33 -29 -125 l0 -96 235 0 235 0 0 96 c0 92
-1 97 -29 125 l-29 29 -177 0 -177 0 -29 -29z"/>
<path d="M994 278 c3 -13 6 -61 6 -108 1 -79 2 -83 15 -59 25 45 95 45 110 0
5 -17 15 -21 51 -21 42 0 44 1 44 30 l0 30 -60 0 c-51 0 -60 3 -59 18 0 10 3
12 6 5 8 -20 71 -16 76 5 4 16 5 16 6 0 0 -10 8 -18 17 -18 11 0 14 5 10 16
-3 9 -6 31 -6 49 l0 34 -62 4 c-47 2 -57 5 -40 11 42 15 22 26 -49 26 -69 0
-71 -1 -65 -22z m133 -64 c-3 -3 -12 -4 -19 -1 -8 3 -5 6 6 6 11 1 17 -2 13
-5z m63 -3 c0 -4 -11 -6 -25 -3 -14 2 -25 6 -25 8 0 2 11 4 25 4 14 0 25 -4
25 -9z"/>
<path d="M1235 258 c8 -36 12 -44 20 -36 8 8 -7 68 -17 68 -6 0 -7 -14 -3 -32z"/>
<path d="M1310 266 c0 -9 5 -16 10 -16 6 0 10 4 10 9 0 6 -4 13 -10 16 -5 3
-10 -1 -10 -9z"/>
<path d="M160 255 c-11 -13 -7 -15 30 -15 37 0 41 2 30 15 -7 8 -20 15 -30 15
-10 0 -23 -7 -30 -15z"/>
<path d="M1282 245 c0 -16 2 -22 5 -12 2 9 2 23 0 30 -3 6 -5 -1 -5 -18z"/>
<path d="M1310 230 c0 -5 5 -10 10 -10 6 0 10 5 10 10 0 6 -4 10 -10 10 -5 0
-10 -4 -10 -10z"/>
<path d="M120 180 c0 -22 5 -40 10 -40 6 0 10 11 10 24 0 14 5 28 11 32 7 4 9
-2 7 -17 -3 -21 2 -24 35 -27 28 -2 37 0 37 12 0 10 -9 16 -25 16 -14 0 -25 5
-25 10 0 6 14 10 30 10 27 0 30 -3 30 -30 0 -16 5 -30 10 -30 6 0 10 18 10 40
l0 40 -70 0 -70 0 0 -40z"/>
<path d="M1240 176 c0 -13 3 -38 6 -55 6 -29 9 -31 49 -31 l43 0 4 55 3 55
-52 0 c-49 0 -53 -2 -53 -24z"/>
<path d="M277 130 c-9 -11 -17 -25 -17 -30 0 -6 42 -10 105 -10 l105 0 0 30 0
30 -88 0 c-75 0 -90 -3 -105 -20z"/>
<path d="M146 105 c-4 -12 4 -15 44 -15 38 0 50 4 50 15 0 21 -85 21 -94 0z"/>
<path d="M1043 113 c-27 -10 -11 -23 28 -23 36 0 40 2 29 15 -12 15 -34 18
-57 8z"/>
<path d="M40 55 c0 -13 38 -15 283 -15 469 0 1127 13 1121 22 -3 4 -320 8
-705 8 -615 0 -699 -2 -699 -15z"/>
</g>
</svg>
